<svg xmlns="http://www.w3.org/2000/svg" xmlns:oryx="http://oryx-editor.org" id="_0141BE4C-B0A4-4C42-92DA-F73D4B019016" width="758" height="261.1875" xmlns:xlink="http://www.w3.org/1999/xlink" xmlns:svg="http://www.w3.org/2000/svg"><defs><marker id="_F647CA96-F4E4-4673-BFC7-767F7874EF06start" refX="1" refY="5" markerUnits="userSpaceOnUse" markerWidth="17" markerHeight="11" orient="auto" fill="#000000" stroke="#000000"> 	  		<path id="_F647CA96-F4E4-4673-BFC7-767F7874EF06conditional" d="M 0 5 L 8 0 L 16 5 L 8 10 L 0 5" fill="white" stroke="#000000" stroke-width="1" display="none"/> 			<path id="_F647CA96-F4E4-4673-BFC7-767F7874EF06default" d="M 5 0 L 11 10" fill="white" stroke="#000000" stroke-width="1" display="none"/> 	  	</marker><marker id="_F647CA96-F4E4-4673-BFC7-767F7874EF06end" refX="15" refY="6" markerUnits="userSpaceOnUse" markerWidth="15" markerHeight="12" orient="auto" fill="#000000" stroke="#000000"> 	  		<path id="_F647CA96-F4E4-4673-BFC7-767F7874EF06frame2" d="M 0 1 L 15 6 L 0 11z" fill="#000000" stroke="#000000" stroke-linejoin="round" stroke-width="2"/> 	  	</marker><marker id="_C719795A-3544-48B7-9FA6-1676D190A457start" refX="1" refY="5" markerUnits="userSpaceOnUse" markerWidth="17" markerHeight="11" orient="auto" fill="#000000" stroke="#000000"> 	  		<path id="_C719795A-3544-48B7-9FA6-1676D190A457conditional" d="M 0 5 L 8 0 L 16 5 L 8 10 L 0 5" fill="white" stroke="#000000" stroke-width="1" display="none"/> 			<path id="_C719795A-3544-48B7-9FA6-1676D190A457default" d="M 5 0 L 11 10" fill="white" stroke="#000000" stroke-width="1" display="none"/> 	  	</marker><marker id="_C719795A-3544-48B7-9FA6-1676D190A457end" refX="15" refY="6" markerUnits="userSpaceOnUse" markerWidth="15" markerHeight="12" orient="auto" fill="#000000" stroke="#000000"> 	  		<path id="_C719795A-3544-48B7-9FA6-1676D190A457frame2" d="M 0 1 L 15 6 L 0 11z" fill="#000000" stroke="#000000" stroke-linejoin="round" stroke-width="2"/> 	  	</marker><marker id="_1FEEDAD7-A2C1-4EC1-B56F-727511989982start" refX="1" refY="5" markerUnits="userSpaceOnUse" markerWidth="17" markerHeight="11" orient="auto" fill="#000000" stroke="#000000"> 	  		<path id="_1FEEDAD7-A2C1-4EC1-B56F-727511989982conditional" d="M 0 5 L 8 0 L 16 5 L 8 10 L 0 5" fill="white" stroke="#000000" stroke-width="1" display="none"/> 			<path id="_1FEEDAD7-A2C1-4EC1-B56F-727511989982default" d="M 5 0 L 11 10" fill="white" stroke="#000000" stroke-width="1" display="none"/> 	  	</marker><marker id="_1FEEDAD7-A2C1-4EC1-B56F-727511989982end" refX="15" refY="6" markerUnits="userSpaceOnUse" markerWidth="15" markerHeight="12" orient="auto" fill="#000000" stroke="#000000"> 	  		<path id="_1FEEDAD7-A2C1-4EC1-B56F-727511989982frame2" d="M 0 1 L 15 6 L 0 11z" fill="#000000" stroke="#000000" stroke-linejoin="round" stroke-width="2"/> 	  	</marker><marker id="_FFF6B233-AD57-4D26-882E-E7028B9A2E0Estart" refX="1" refY="5" markerUnits="userSpaceOnUse" markerWidth="17" markerHeight="11" orient="auto" fill="#000000" stroke="#000000"> 	  		<path id="_FFF6B233-AD57-4D26-882E-E7028B9A2E0Econditional" d="M 0 5 L 8 0 L 16 5 L 8 10 L 0 5" fill="white" stroke="#000000" stroke-width="1" display="none"/> 			<path id="_FFF6B233-AD57-4D26-882E-E7028B9A2E0Edefault" d="M 5 0 L 11 10" fill="white" stroke="#000000" stroke-width="1" display="none"/> 	  	</marker><marker id="_FFF6B233-AD57-4D26-882E-E7028B9A2E0Eend" refX="15" refY="6" markerUnits="userSpaceOnUse" markerWidth="15" markerHeight="12" orient="auto" fill="#000000" stroke="#000000"> 	  		<path id="_FFF6B233-AD57-4D26-882E-E7028B9A2E0Eframe2" d="M 0 1 L 15 6 L 0 11z" fill="#000000" stroke="#000000" stroke-linejoin="round" stroke-width="2"/> 	  	</marker></defs><g stroke="none" font-family="Verdana, sans-serif" font-size-adjust="none" font-style="normal" font-variant="normal" font-weight="normal" line-heigth="normal" font-size="12"><g class="stencils" transform="translate(15, 16.1875)"><g class="me"/><g class="children"><g id="_3B4FB7EC-EF5C-4F1A-8B3F-3E68F8BC4C6D" bpmn2nodeid="processStartEvent"><g class="stencils" transform="translate(120, 165)"><g class="me"><g pointer-events="fill" id="_3B4FB7EC-EF5C-4F1A-8B3F-3E68F8BC4C6D">        <defs id="_3B4FB7EC-EF5C-4F1A-8B3F-3E68F8BC4C6D__3B4FB7EC-EF5C-4F1A-8B3F-3E68F8BC4C6D_5"> 		<radialGradient id="_3B4FB7EC-EF5C-4F1A-8B3F-3E68F8BC4C6Dbackground" cx="10%" cy="10%" r="100%" fx="10%" fy="10%"> 			<stop offset="0%" stop-color="#ffffff" stop-opacity="1" id="_3B4FB7EC-EF5C-4F1A-8B3F-3E68F8BC4C6D__3B4FB7EC-EF5C-4F1A-8B3F-3E68F8BC4C6D_6"/> 			<stop id="_3B4FB7EC-EF5C-4F1A-8B3F-3E68F8BC4C6Dfill_el" offset="100%" stop-color="#9acd32" stop-opacity="1"/> 		</radialGradient> 	</defs> 	     <circle id="_3B4FB7EC-EF5C-4F1A-8B3F-3E68F8BC4C6Dbg_frame" cx="15" cy="15" r="15" stroke="#000000" fill="url(#_3B4FB7EC-EF5C-4F1A-8B3F-3E68F8BC4C6Dbackground) white" stroke-width="1" style="stroke-dasharray: 5.5, 3"/>      <circle id="_3B4FB7EC-EF5C-4F1A-8B3F-3E68F8BC4C6Dframe" cx="15" cy="15" r="15" stroke="#000000" fill="none" stroke-width="1" display="inherit"/>  	<text font-size="11" id="_3B4FB7EC-EF5C-4F1A-8B3F-3E68F8BC4C6Dtext_name" x="15" y="32" oryx:align="top center" stroke="black" stroke-width="0pt" letter-spacing="-0.01px" fill="#000000" text-anchor="middle" transform="rotate(0 15 32)" visibility="inherit" oryx:fontSize="11"/>   </g></g><g class="children" style="overflow:hidden"/><g class="edge"/></g><g class="controls"><g class="dockers"/><g class="magnets" transform="translate(120, 165)"><g pointer-events="all" display="none" transform="translate(7, 7)"><circle cx="8" cy="8" r="4" stroke="none" fill="red" fill-opacity="0.3"/></g></g></g></g><g id="_AE32FAF1-AC66-42CD-8BFD-470A51B60C2B" bpmn2nodeid="_F25C9A09-64C0-4566-A3F7-766FD9A64863"><g class="stencils" transform="translate(195, 140)"><g class="me"><g pointer-events="fill" oryx:minimumSize="50 40" id="_AE32FAF1-AC66-42CD-8BFD-470A51B60C2B">   	<defs id="_AE32FAF1-AC66-42CD-8BFD-470A51B60C2B__AE32FAF1-AC66-42CD-8BFD-470A51B60C2B_17"> 		<radialGradient id="_AE32FAF1-AC66-42CD-8BFD-470A51B60C2Bbackground" cx="10%" cy="10%" r="100%" fx="10%" fy="10%"> 			<stop offset="0%" stop-color="#ffffff" stop-opacity="1" id="_AE32FAF1-AC66-42CD-8BFD-470A51B60C2B__AE32FAF1-AC66-42CD-8BFD-470A51B60C2B_18"/> 			<stop id="_AE32FAF1-AC66-42CD-8BFD-470A51B60C2Bfill_el" offset="100%" stop-color="#fafad2" stop-opacity="1"/> 		</radialGradient> 		<radialGradient id="_AE32FAF1-AC66-42CD-8BFD-470A51B60C2Bborderbackground" cx="10%" cy="10%" r="100%" fx="10%" fy="10%"> 			<stop offset="0%" stop-color="#ffffff" stop-opacity="1" id="_AE32FAF1-AC66-42CD-8BFD-470A51B60C2B__AE32FAF1-AC66-42CD-8BFD-470A51B60C2B_19"/> 			<stop id="_AE32FAF1-AC66-42CD-8BFD-470A51B60C2Bfill_border" offset="100%" stop-color="#000000" stop-opacity="1" stroke="#000000"/> 		</radialGradient> 	</defs> 	 	<rect id="_AE32FAF1-AC66-42CD-8BFD-470A51B60C2Btext_frame" oryx:anchors="bottom top right left" x="1" y="1" width="94" height="79" rx="10" ry="10" stroke="none" stroke-width="0" fill="none"/> 	<rect id="_AE32FAF1-AC66-42CD-8BFD-470A51B60C2Bbg_frame" oryx:resize="vertical horizontal" x="0" y="0" width="100" height="80" rx="10" ry="10" stroke="#000000" stroke-width="1" fill="url(#_AE32FAF1-AC66-42CD-8BFD-470A51B60C2Bbackground) #ffffcc"/> 		<text font-size="12" id="_AE32FAF1-AC66-42CD-8BFD-470A51B60C2Btext_name" x="50" y="40" oryx:align="middle center" oryx:fittoelem="text_frame" stroke="black" text-anchor="middle" stroke-width="0pt" letter-spacing="-0.01px" fill="#000000" transform="rotate(0 50 40)" visibility="inherit" oryx:fontSize="12"><tspan x="50" y="40" dy="-13">Invia Richiesta </tspan><tspan x="50" y="40" dy="-1">Annullmento </tspan><tspan x="50" y="40" dy="11">WOA a </tspan><tspan x="50" y="40" dy="23">telegestore</tspan></text>     <g id="_AE32FAF1-AC66-42CD-8BFD-470A51B60C2BmanualTask" transform="scale(0.7,0.7) translate(8,8)" display="none">     	<path oryx:anchors="top left" id="_AE32FAF1-AC66-42CD-8BFD-470A51B60C2Bframe" style="opacity:1;fill:none;fill-opacity:1;stroke-width:1" d="M0.5,3.751l4.083-3.25c0,0,11.166,0.083,12.083,0.083s-2.417,2.917-1.5,2.917     s11.667,0,12.584,0c1.166,1.708-0.168,3.167-0.834,3.667s0.875,1.917-1,4.417c-0.75,0.25,0.75,1.875-1.333,3.333     c-1.167,0.583,0.583,1.542-1.25,2.833c-1.167,0-20.833,0.083-20.833,0.083l-2-1.333V3.751z" stroke="#000000"/> 		<path id="_AE32FAF1-AC66-42CD-8BFD-470A51B60C2Bframe2" oryx:anchors="top left" style="opacity:1;fill:none;stroke-width:2" d="M 13.5 7 L 27 7" stroke="#000000"/> 		<path id="_AE32FAF1-AC66-42CD-8BFD-470A51B60C2Bframe3" oryx:anchors="top left" style="opacity:1;fill:none;stroke-width:2" d="M 13.5 11 L 26 11" stroke="#000000"/> 		<path id="_AE32FAF1-AC66-42CD-8BFD-470A51B60C2Bframe4" oryx:anchors="top left" style="opacity:1;fill:none;stroke-width:1.5" d="M 14 14.5 L 25 14.5" stroke="#000000"/> 		<path id="_AE32FAF1-AC66-42CD-8BFD-470A51B60C2Bframe5" oryx:anchors="top left" style="opacity:1;fill:none;stroke-width:1.5" d="M 8.2 3.1 L 15 3.1" stroke="#000000"/> 	</g> 	 	<g id="_AE32FAF1-AC66-42CD-8BFD-470A51B60C2BbusinessRuleTask" transform="scale(0.7,0.7) translate(8,8)" display="none"> 		<rect id="_AE32FAF1-AC66-42CD-8BFD-470A51B60C2Bframe6" oryx:anchors="top left" x="0" y="0" width="22" height="4" style="opacity:1;fill:#B3B1B3;fill-opacity:1;" stroke="#000000"/> 		<rect id="_AE32FAF1-AC66-42CD-8BFD-470A51B60C2Bframe7" oryx:anchors="top left" x="0" y="4" style="opacity:1;fill:none;" width="22" height="12" stroke="#000000"/> 		<path id="_AE32FAF1-AC66-42CD-8BFD-470A51B60C2Bframe8" oryx:anchors="top left" style="opacity:1;fill:none;" d="M 0 10 L 22 10" stroke="#000000"/> 		<path id="_AE32FAF1-AC66-42CD-8BFD-470A51B60C2Bframe9" oryx:anchors="top left" style="opacity:1; fill:none;" d="M 7 4 L 7 16" stroke="#000000"/> 	</g> 	 	<g id="_AE32FAF1-AC66-42CD-8BFD-470A51B60C2BscriptTask" transform="scale(0.7,0.7) translate(8,8)" display="none"> 		<path oryx:anchors="top left" id="_AE32FAF1-AC66-42CD-8BFD-470A51B60C2Bframe10" style="opacity:1;fill:none;" stroke="#000000" d="M6.402,0.5h14.5c0,0-5.833,2.833-5.833,5.583s4.417,6,4.417,9.167    s-4.167,5.083-4.167,5.083H0.235c0,0,5-2.667,5-5s-4.583-6.75-4.583-9.25S6.402,0.5,6.402,0.5z"/> 		<path oryx:anchors="top left" id="_AE32FAF1-AC66-42CD-8BFD-470A51B60C2Bframe11" style="opacity:1;fill:none;stroke-width:1.5" d="M 3.5 4.5 L 13.5 4.5" stroke="#000000"/> 		<path oryx:anchors="top left" id="_AE32FAF1-AC66-42CD-8BFD-470A51B60C2Bframe12" style="opacity:1;fill:none;stroke-width:1.5" d="M 3.8 8.5 L 13.8 8.5" stroke="#000000"/> 		<path oryx:anchors="top left" id="_AE32FAF1-AC66-42CD-8BFD-470A51B60C2Bframe13" style="opacity:1;fill:none;stroke-width:1.5" d="M 6.3 12.5 L 16.3 12.5" stroke="#000000"/> 		<path oryx:anchors="top left" id="_AE32FAF1-AC66-42CD-8BFD-470A51B60C2Bframe14" style="opacity:1;fill:none;stroke-width:1.5" d="M 6.5 16.5 L 16.5 16.5" stroke="#000000"/> 	</g> 	 	<g id="_AE32FAF1-AC66-42CD-8BFD-470A51B60C2BuserTask" transform="scale(0.7,0.7) translate(8,8)" display="none"> 		<path id="_AE32FAF1-AC66-42CD-8BFD-470A51B60C2Bframe15" oryx:anchors="top left" style="opacity:1;fill:#F4F6F7" stroke="#000000" d="M0.585,24.167h24.083v-7.833c0,0-2.333-3.917-7.083-5.167h-9.25    c-4.417,1.333-7.833,5.75-7.833,5.75L0.585,24.167z"/> 		<path id="_AE32FAF1-AC66-42CD-8BFD-470A51B60C2Bframe16" oryx:anchors="top left" style="opacity:1;fill:none" d="M 6 20 L 6 24" stroke="#000000"/> 		<path id="_AE32FAF1-AC66-42CD-8BFD-470A51B60C2Bframe17" oryx:anchors="top left" style="opacity:1;fill:none" d="M 20 20 L 20 24" stroke="#000000"/> 		<circle id="_AE32FAF1-AC66-42CD-8BFD-470A51B60C2Bframe18" oryx:anchors="top left" fill="black" cx="13.002" cy="5.916" r="5.417" stroke="#000000"/> 		<path id="_AE32FAF1-AC66-42CD-8BFD-470A51B60C2Bframe19" oryx:anchors="top left" style="opacity:1;fill:#F0EFF0;" stroke="#000000" d="M8.043,7.083c0,0,2.814-2.426,5.376-1.807s4.624-0.693,4.624-0.693    c0.25,1.688,0.042,3.75-1.458,5.584c0,0,1.083,0.75,1.083,1.5s0.125,1.875-1,3s-5.5,1.25-6.75,0S8.668,12.834,8.668,12    s0.583-1.25,1.25-1.917C8.835,9.5,7.419,7.708,8.043,7.083z"/> 	</g> 	 	<g id="_AE32FAF1-AC66-42CD-8BFD-470A51B60C2BserviceTask" transform="scale(0.7,0.7) translate(8,8)" display="none"> 		<polygon oryx:anchors="top left" id="_AE32FAF1-AC66-42CD-8BFD-470A51B60C2Bframe20" style="opacity:1;fill:#ffffff" stroke="#000000" points="15.392,5.064 17.954,2.502 20.347,4.895 17.786,7.455     18.729,9.732 22.353,9.732 22.353,13.115 18.731,13.115 17.788,15.392 20.351,17.955 17.958,20.347 15.397,17.786 13.12,18.729     13.12,22.353 9.737,22.353 9.737,18.731 7.46,17.788 4.897,20.35 2.506,17.958 5.066,15.397 4.124,13.12 0.5,13.12 0.5,9.737     4.121,9.737 5.065,7.461 2.503,4.898 4.895,2.506 7.455,5.066 9.732,4.125 9.732,0.5 13.116,0.5 13.116,4.121 "/> 		<circle oryx:anchors="top left" id="_AE32FAF1-AC66-42CD-8BFD-470A51B60C2Bframe21" style="opacity:1;fill:none" stroke="#000000" cx="11.427" cy="11.426" r="3.714"/> 		<polygon oryx:anchors="top left" id="_AE32FAF1-AC66-42CD-8BFD-470A51B60C2Bframe22" style="opacity:1;fill:#ffffff" stroke="#000000" points="21.392,11.064 23.954,8.502 26.347,10.895 23.786,13.455     24.729,15.732 28.353,15.732 28.353,19.115 24.731,19.115 23.788,21.392 26.351,23.955 23.958,26.347 21.397,23.786 19.12,24.729     19.12,28.353 15.737,28.353 15.737,24.731 13.46,23.788 10.897,26.35 8.506,23.958 11.066,21.397 10.124,19.12 6.5,19.12     6.5,15.737 10.121,15.737 11.065,13.461 8.503,10.898 10.895,8.506 13.455,11.066 15.732,10.125 15.732,6.5 19.116,6.5     19.116,10.121 "/> 		<circle oryx:anchors="top left" id="_AE32FAF1-AC66-42CD-8BFD-470A51B60C2Bframe23" style="opacity:1;fill:none;" stroke="#000000" cx="17.427" cy="17.426" r="3.714"/> 	</g> 	 	<g id="_AE32FAF1-AC66-42CD-8BFD-470A51B60C2BsendTask" display="none"> 		<path id="_AE32FAF1-AC66-42CD-8BFD-470A51B60C2Bstframe24" oryx:anchors="left top" stroke="#FFFFFF" fill="black" stroke-width="1" d="M8,11 L8,21 L24,21 L24,11 L16,17z"/> 		<path id="_AE32FAF1-AC66-42CD-8BFD-470A51B60C2Bstframe25" oryx:anchors="left top" stroke="#FFFFFF" fill="black" stroke-width="1" d="M7,10 L16,17 L25 10z"/> 	</g> 	 	<g id="_AE32FAF1-AC66-42CD-8BFD-470A51B60C2BreceiveTask" display="none"> 		<path id="_AE32FAF1-AC66-42CD-8BFD-470A51B60C2Bframe26" oryx:anchors="left top" stroke="#000000" fill="none" stroke-width="1" d="M8,11 L8,21 L24,21 L24,11z M8,11 L16,17 L24,11"/> 	</g> 	 	<g id="_AE32FAF1-AC66-42CD-8BFD-470A51B60C2Bnone" display="inherit"/>  	<g id="_AE32FAF1-AC66-42CD-8BFD-470A51B60C2Bsequential" display="none">         <path oryx:anchors="bottom" fill="none" stroke="#000000" stroke-width="2" d="M46,76h10M46,72h10 M46,68h10" id="_AE32FAF1-AC66-42CD-8BFD-470A51B60C2B__AE32FAF1-AC66-42CD-8BFD-470A51B60C2B_20"/>     </g>   </g></g><g class="children" style="overflow:hidden"/><g class="edge"/></g><g class="controls"><g class="dockers"/><g class="magnets" transform="translate(195, 140)"><g pointer-events="all" display="none" transform="translate(-7, 12)"><circle cx="8" cy="8" r="4" stroke="none" fill="red" fill-opacity="0.3"/></g><g pointer-events="all" display="none" transform="translate(-7, 32)"><circle cx="8" cy="8" r="4" stroke="none" fill="red" fill-opacity="0.3"/></g><g pointer-events="all" display="none" transform="translate(-7, 52)"><circle cx="8" cy="8" r="4" stroke="none" fill="red" fill-opacity="0.3"/></g><g pointer-events="all" display="none" transform="translate(17, 71)"><circle cx="8" cy="8" r="4" stroke="none" fill="red" fill-opacity="0.3"/></g><g pointer-events="all" display="none" transform="translate(42, 71)"><circle cx="8" cy="8" r="4" stroke="none" fill="red" fill-opacity="0.3"/></g><g pointer-events="all" display="none" transform="translate(67, 71)"><circle cx="8" cy="8" r="4" stroke="none" fill="red" fill-opacity="0.3"/></g><g pointer-events="all" display="none" transform="translate(91, 12)"><circle cx="8" cy="8" r="4" stroke="none" fill="red" fill-opacity="0.3"/></g><g pointer-events="all" display="none" transform="translate(91, 32)"><circle cx="8" cy="8" r="4" stroke="none" fill="red" fill-opacity="0.3"/></g><g pointer-events="all" display="none" transform="translate(91, 52)"><circle cx="8" cy="8" r="4" stroke="none" fill="red" fill-opacity="0.3"/></g><g pointer-events="all" display="none" transform="translate(17, -7)"><circle cx="8" cy="8" r="4" stroke="none" fill="red" fill-opacity="0.3"/></g><g pointer-events="all" display="none" transform="translate(42, -7)"><circle cx="8" cy="8" r="4" stroke="none" fill="red" fill-opacity="0.3"/></g><g pointer-events="all" display="none" transform="translate(67, -7)"><circle cx="8" cy="8" r="4" stroke="none" fill="red" fill-opacity="0.3"/></g><g pointer-events="all" display="none" transform="translate(42, 32)"><circle cx="8" cy="8" r="4" stroke="none" fill="red" fill-opacity="0.3"/></g></g></g></g><g id="_BA84DC5F-70B4-415F-9135-3BFD41C75324" bpmn2nodeid="_5DFDF3F6-9919-4B23-81B7-12269726363A"><g class="stencils" transform="translate(390, 165)"><g class="me"><g pointer-events="fill" id="_BA84DC5F-70B4-415F-9135-3BFD41C75324">      <defs id="_BA84DC5F-70B4-415F-9135-3BFD41C75324__BA84DC5F-70B4-415F-9135-3BFD41C75324_6"> 		<radialGradient id="_BA84DC5F-70B4-415F-9135-3BFD41C75324background" cx="10%" cy="10%" r="100%" fx="10%" fy="10%"> 			<stop offset="0%" stop-color="#ffffff" stop-opacity="1" id="_BA84DC5F-70B4-415F-9135-3BFD41C75324__BA84DC5F-70B4-415F-9135-3BFD41C75324_7"/> 			<stop id="_BA84DC5F-70B4-415F-9135-3BFD41C75324fill_el" offset="100%" stop-color="#f5deb3" stop-opacity="1"/> 		</radialGradient> 	</defs> 	     <circle id="_BA84DC5F-70B4-415F-9135-3BFD41C75324bg_frame" cx="15" cy="15" r="15" stroke="#a0522d" fill="url(#_BA84DC5F-70B4-415F-9135-3BFD41C75324background) white" stroke-width="1" style="stroke-dasharray: 5.5, 3"/>     	     <circle id="_BA84DC5F-70B4-415F-9135-3BFD41C75324frame" cx="15" cy="15" r="12" stroke="#a0522d" fill="none" stroke-width="1" style="stroke-dasharray: 4.5, 3" display="none"/>          <circle id="_BA84DC5F-70B4-415F-9135-3BFD41C75324frame2" cx="15" cy="15" r="15" stroke="#a0522d" fill="none" stroke-width="1" display="inherit"/>     <circle id="_BA84DC5F-70B4-415F-9135-3BFD41C75324frame3" cx="15" cy="15" r="12" stroke="#a0522d" fill="none" stroke-width="1" display="inherit"/> 	<path id="_BA84DC5F-70B4-415F-9135-3BFD41C75324frame4" stroke="#a0522d" d=" M7.7124971 20.247342  L22.333334 20.247342  L15.022915000000001 7.575951200000001  L7.7124971 20.247342  z" style="fill:none;stroke-width:1.4;stroke-miterlimit:4;stroke-dasharray:none"/> 	<text font-size="11" id="_BA84DC5F-70B4-415F-9135-3BFD41C75324text_name" x="15" y="32" oryx:align="top center" stroke="black" stroke-width="0pt" letter-spacing="-0.01px" fill="#000000" text-anchor="middle" transform="rotate(0 15 32)" visibility="inherit" oryx:fontSize="11"><tspan x="15" y="32" dy="11">ReplyAnnullamento WOA</tspan></text>   </g></g><g class="children" style="overflow:hidden"/><g class="edge"/></g><g class="controls"><g class="dockers"/><g class="magnets" transform="translate(390, 165)"><g pointer-events="all" display="none" transform="translate(7, 7)"><circle cx="8" cy="8" r="4" stroke="none" fill="red" fill-opacity="0.3"/></g></g></g></g><g id="_A6CC4A64-282E-40C0-B3FB-45B1DEB3675E" bpmn2nodeid="_DCC0D21D-6AC6-4F6B-8E9E-A1DA913AB03A"><g class="stencils" transform="translate(510, 140)"><g class="me"><g pointer-events="fill" oryx:minimumSize="50 40" id="_A6CC4A64-282E-40C0-B3FB-45B1DEB3675E">   	<defs id="_A6CC4A64-282E-40C0-B3FB-45B1DEB3675E__A6CC4A64-282E-40C0-B3FB-45B1DEB3675E_17"> 		<radialGradient id="_A6CC4A64-282E-40C0-B3FB-45B1DEB3675Ebackground" cx="10%" cy="10%" r="100%" fx="10%" fy="10%"> 			<stop offset="0%" stop-color="#ffffff" stop-opacity="1" id="_A6CC4A64-282E-40C0-B3FB-45B1DEB3675E__A6CC4A64-282E-40C0-B3FB-45B1DEB3675E_18"/> 			<stop id="_A6CC4A64-282E-40C0-B3FB-45B1DEB3675Efill_el" offset="100%" stop-color="#fafad2" stop-opacity="1"/> 		</radialGradient> 		<radialGradient id="_A6CC4A64-282E-40C0-B3FB-45B1DEB3675Eborderbackground" cx="10%" cy="10%" r="100%" fx="10%" fy="10%"> 			<stop offset="0%" stop-color="#ffffff" stop-opacity="1" id="_A6CC4A64-282E-40C0-B3FB-45B1DEB3675E__A6CC4A64-282E-40C0-B3FB-45B1DEB3675E_19"/> 			<stop id="_A6CC4A64-282E-40C0-B3FB-45B1DEB3675Efill_border" offset="100%" stop-color="#000000" stop-opacity="1" stroke="#000000"/> 		</radialGradient> 	</defs> 	 	<rect id="_A6CC4A64-282E-40C0-B3FB-45B1DEB3675Etext_frame" oryx:anchors="bottom top right left" x="1" y="1" width="94" height="79" rx="10" ry="10" stroke="none" stroke-width="0" fill="none"/> 	<rect id="_A6CC4A64-282E-40C0-B3FB-45B1DEB3675Ebg_frame" oryx:resize="vertical horizontal" x="0" y="0" width="100" height="80" rx="10" ry="10" stroke="#000000" stroke-width="1" fill="url(#_A6CC4A64-282E-40C0-B3FB-45B1DEB3675Ebackground) #ffffcc"/> 		<text font-size="12" id="_A6CC4A64-282E-40C0-B3FB-45B1DEB3675Etext_name" x="50" y="40" oryx:align="middle center" oryx:fittoelem="text_frame" stroke="black" text-anchor="middle" stroke-width="0pt" letter-spacing="-0.01px" fill="#000000" transform="rotate(0 50 40)" visibility="inherit" oryx:fontSize="12"><tspan x="50" y="40" dy="5">Elabora reply</tspan></text>     <g id="_A6CC4A64-282E-40C0-B3FB-45B1DEB3675EmanualTask" transform="scale(0.7,0.7) translate(8,8)" display="none">     	<path oryx:anchors="top left" id="_A6CC4A64-282E-40C0-B3FB-45B1DEB3675Eframe" style="opacity:1;fill:none;fill-opacity:1;stroke-width:1" d="M0.5,3.751l4.083-3.25c0,0,11.166,0.083,12.083,0.083s-2.417,2.917-1.5,2.917     s11.667,0,12.584,0c1.166,1.708-0.168,3.167-0.834,3.667s0.875,1.917-1,4.417c-0.75,0.25,0.75,1.875-1.333,3.333     c-1.167,0.583,0.583,1.542-1.25,2.833c-1.167,0-20.833,0.083-20.833,0.083l-2-1.333V3.751z" stroke="#000000"/> 		<path id="_A6CC4A64-282E-40C0-B3FB-45B1DEB3675Eframe2" oryx:anchors="top left" style="opacity:1;fill:none;stroke-width:2" d="M 13.5 7 L 27 7" stroke="#000000"/> 		<path id="_A6CC4A64-282E-40C0-B3FB-45B1DEB3675Eframe3" oryx:anchors="top left" style="opacity:1;fill:none;stroke-width:2" d="M 13.5 11 L 26 11" stroke="#000000"/> 		<path id="_A6CC4A64-282E-40C0-B3FB-45B1DEB3675Eframe4" oryx:anchors="top left" style="opacity:1;fill:none;stroke-width:1.5" d="M 14 14.5 L 25 14.5" stroke="#000000"/> 		<path id="_A6CC4A64-282E-40C0-B3FB-45B1DEB3675Eframe5" oryx:anchors="top left" style="opacity:1;fill:none;stroke-width:1.5" d="M 8.2 3.1 L 15 3.1" stroke="#000000"/> 	</g> 	 	<g id="_A6CC4A64-282E-40C0-B3FB-45B1DEB3675EbusinessRuleTask" transform="scale(0.7,0.7) translate(8,8)" display="none"> 		<rect id="_A6CC4A64-282E-40C0-B3FB-45B1DEB3675Eframe6" oryx:anchors="top left" x="0" y="0" width="22" height="4" style="opacity:1;fill:#B3B1B3;fill-opacity:1;" stroke="#000000"/> 		<rect id="_A6CC4A64-282E-40C0-B3FB-45B1DEB3675Eframe7" oryx:anchors="top left" x="0" y="4" style="opacity:1;fill:none;" width="22" height="12" stroke="#000000"/> 		<path id="_A6CC4A64-282E-40C0-B3FB-45B1DEB3675Eframe8" oryx:anchors="top left" style="opacity:1;fill:none;" d="M 0 10 L 22 10" stroke="#000000"/> 		<path id="_A6CC4A64-282E-40C0-B3FB-45B1DEB3675Eframe9" oryx:anchors="top left" style="opacity:1; fill:none;" d="M 7 4 L 7 16" stroke="#000000"/> 	</g> 	 	<g id="_A6CC4A64-282E-40C0-B3FB-45B1DEB3675EscriptTask" transform="scale(0.7,0.7) translate(8,8)" display="none"> 		<path oryx:anchors="top left" id="_A6CC4A64-282E-40C0-B3FB-45B1DEB3675Eframe10" style="opacity:1;fill:none;" stroke="#000000" d="M6.402,0.5h14.5c0,0-5.833,2.833-5.833,5.583s4.417,6,4.417,9.167    s-4.167,5.083-4.167,5.083H0.235c0,0,5-2.667,5-5s-4.583-6.75-4.583-9.25S6.402,0.5,6.402,0.5z"/> 		<path oryx:anchors="top left" id="_A6CC4A64-282E-40C0-B3FB-45B1DEB3675Eframe11" style="opacity:1;fill:none;stroke-width:1.5" d="M 3.5 4.5 L 13.5 4.5" stroke="#000000"/> 		<path oryx:anchors="top left" id="_A6CC4A64-282E-40C0-B3FB-45B1DEB3675Eframe12" style="opacity:1;fill:none;stroke-width:1.5" d="M 3.8 8.5 L 13.8 8.5" stroke="#000000"/> 		<path oryx:anchors="top left" id="_A6CC4A64-282E-40C0-B3FB-45B1DEB3675Eframe13" style="opacity:1;fill:none;stroke-width:1.5" d="M 6.3 12.5 L 16.3 12.5" stroke="#000000"/> 		<path oryx:anchors="top left" id="_A6CC4A64-282E-40C0-B3FB-45B1DEB3675Eframe14" style="opacity:1;fill:none;stroke-width:1.5" d="M 6.5 16.5 L 16.5 16.5" stroke="#000000"/> 	</g> 	 	<g id="_A6CC4A64-282E-40C0-B3FB-45B1DEB3675EuserTask" transform="scale(0.7,0.7) translate(8,8)" display="none"> 		<path id="_A6CC4A64-282E-40C0-B3FB-45B1DEB3675Eframe15" oryx:anchors="top left" style="opacity:1;fill:#F4F6F7" stroke="#000000" d="M0.585,24.167h24.083v-7.833c0,0-2.333-3.917-7.083-5.167h-9.25    c-4.417,1.333-7.833,5.75-7.833,5.75L0.585,24.167z"/> 		<path id="_A6CC4A64-282E-40C0-B3FB-45B1DEB3675Eframe16" oryx:anchors="top left" style="opacity:1;fill:none" d="M 6 20 L 6 24" stroke="#000000"/> 		<path id="_A6CC4A64-282E-40C0-B3FB-45B1DEB3675Eframe17" oryx:anchors="top left" style="opacity:1;fill:none" d="M 20 20 L 20 24" stroke="#000000"/> 		<circle id="_A6CC4A64-282E-40C0-B3FB-45B1DEB3675Eframe18" oryx:anchors="top left" fill="black" cx="13.002" cy="5.916" r="5.417" stroke="#000000"/> 		<path id="_A6CC4A64-282E-40C0-B3FB-45B1DEB3675Eframe19" oryx:anchors="top left" style="opacity:1;fill:#F0EFF0;" stroke="#000000" d="M8.043,7.083c0,0,2.814-2.426,5.376-1.807s4.624-0.693,4.624-0.693    c0.25,1.688,0.042,3.75-1.458,5.584c0,0,1.083,0.75,1.083,1.5s0.125,1.875-1,3s-5.5,1.25-6.75,0S8.668,12.834,8.668,12    s0.583-1.25,1.25-1.917C8.835,9.5,7.419,7.708,8.043,7.083z"/> 	</g> 	 	<g id="_A6CC4A64-282E-40C0-B3FB-45B1DEB3675EserviceTask" transform="scale(0.7,0.7) translate(8,8)" display="none"> 		<polygon oryx:anchors="top left" id="_A6CC4A64-282E-40C0-B3FB-45B1DEB3675Eframe20" style="opacity:1;fill:#ffffff" stroke="#000000" points="15.392,5.064 17.954,2.502 20.347,4.895 17.786,7.455     18.729,9.732 22.353,9.732 22.353,13.115 18.731,13.115 17.788,15.392 20.351,17.955 17.958,20.347 15.397,17.786 13.12,18.729     13.12,22.353 9.737,22.353 9.737,18.731 7.46,17.788 4.897,20.35 2.506,17.958 5.066,15.397 4.124,13.12 0.5,13.12 0.5,9.737     4.121,9.737 5.065,7.461 2.503,4.898 4.895,2.506 7.455,5.066 9.732,4.125 9.732,0.5 13.116,0.5 13.116,4.121 "/> 		<circle oryx:anchors="top left" id="_A6CC4A64-282E-40C0-B3FB-45B1DEB3675Eframe21" style="opacity:1;fill:none" stroke="#000000" cx="11.427" cy="11.426" r="3.714"/> 		<polygon oryx:anchors="top left" id="_A6CC4A64-282E-40C0-B3FB-45B1DEB3675Eframe22" style="opacity:1;fill:#ffffff" stroke="#000000" points="21.392,11.064 23.954,8.502 26.347,10.895 23.786,13.455     24.729,15.732 28.353,15.732 28.353,19.115 24.731,19.115 23.788,21.392 26.351,23.955 23.958,26.347 21.397,23.786 19.12,24.729     19.12,28.353 15.737,28.353 15.737,24.731 13.46,23.788 10.897,26.35 8.506,23.958 11.066,21.397 10.124,19.12 6.5,19.12     6.5,15.737 10.121,15.737 11.065,13.461 8.503,10.898 10.895,8.506 13.455,11.066 15.732,10.125 15.732,6.5 19.116,6.5     19.116,10.121 "/> 		<circle oryx:anchors="top left" id="_A6CC4A64-282E-40C0-B3FB-45B1DEB3675Eframe23" style="opacity:1;fill:none;" stroke="#000000" cx="17.427" cy="17.426" r="3.714"/> 	</g> 	 	<g id="_A6CC4A64-282E-40C0-B3FB-45B1DEB3675EsendTask" display="none"> 		<path id="_A6CC4A64-282E-40C0-B3FB-45B1DEB3675Estframe24" oryx:anchors="left top" stroke="#FFFFFF" fill="black" stroke-width="1" d="M8,11 L8,21 L24,21 L24,11 L16,17z"/> 		<path id="_A6CC4A64-282E-40C0-B3FB-45B1DEB3675Estframe25" oryx:anchors="left top" stroke="#FFFFFF" fill="black" stroke-width="1" d="M7,10 L16,17 L25 10z"/> 	</g> 	 	<g id="_A6CC4A64-282E-40C0-B3FB-45B1DEB3675EreceiveTask" display="none"> 		<path id="_A6CC4A64-282E-40C0-B3FB-45B1DEB3675Eframe26" oryx:anchors="left top" stroke="#000000" fill="none" stroke-width="1" d="M8,11 L8,21 L24,21 L24,11z M8,11 L16,17 L24,11"/> 	</g> 	 	<g id="_A6CC4A64-282E-40C0-B3FB-45B1DEB3675Enone" display="inherit"/>  	<g id="_A6CC4A64-282E-40C0-B3FB-45B1DEB3675Esequential" display="none">         <path oryx:anchors="bottom" fill="none" stroke="#000000" stroke-width="2" d="M46,76h10M46,72h10 M46,68h10" id="_A6CC4A64-282E-40C0-B3FB-45B1DEB3675E__A6CC4A64-282E-40C0-B3FB-45B1DEB3675E_20"/>     </g>   </g></g><g class="children" style="overflow:hidden"/><g class="edge"/></g><g class="controls"><g class="dockers"/><g class="magnets" transform="translate(510, 140)"><g pointer-events="all" display="none" transform="translate(-7, 12)"><circle cx="8" cy="8" r="4" stroke="none" fill="red" fill-opacity="0.3"/></g><g pointer-events="all" display="none" transform="translate(-7, 32)"><circle cx="8" cy="8" r="4" stroke="none" fill="red" fill-opacity="0.3"/></g><g pointer-events="all" display="none" transform="translate(-7, 52)"><circle cx="8" cy="8" r="4" stroke="none" fill="red" fill-opacity="0.3"/></g><g pointer-events="all" display="none" transform="translate(17, 71)"><circle cx="8" cy="8" r="4" stroke="none" fill="red" fill-opacity="0.3"/></g><g pointer-events="all" display="none" transform="translate(42, 71)"><circle cx="8" cy="8" r="4" stroke="none" fill="red" fill-opacity="0.3"/></g><g pointer-events="all" display="none" transform="translate(67, 71)"><circle cx="8" cy="8" r="4" stroke="none" fill="red" fill-opacity="0.3"/></g><g pointer-events="all" display="none" transform="translate(91, 12)"><circle cx="8" cy="8" r="4" stroke="none" fill="red" fill-opacity="0.3"/></g><g pointer-events="all" display="none" transform="translate(91, 32)"><circle cx="8" cy="8" r="4" stroke="none" fill="red" fill-opacity="0.3"/></g><g pointer-events="all" display="none" transform="translate(91, 52)"><circle cx="8" cy="8" r="4" stroke="none" fill="red" fill-opacity="0.3"/></g><g pointer-events="all" display="none" transform="translate(17, -7)"><circle cx="8" cy="8" r="4" stroke="none" fill="red" fill-opacity="0.3"/></g><g pointer-events="all" display="none" transform="translate(42, -7)"><circle cx="8" cy="8" r="4" stroke="none" fill="red" fill-opacity="0.3"/></g><g pointer-events="all" display="none" transform="translate(67, -7)"><circle cx="8" cy="8" r="4" stroke="none" fill="red" fill-opacity="0.3"/></g><g pointer-events="all" display="none" transform="translate(42, 32)"><circle cx="8" cy="8" r="4" stroke="none" fill="red" fill-opacity="0.3"/></g></g></g></g><g id="_44853682-0C7E-49A1-A78E-FDB607B85BE1" bpmn2nodeid="_5B9684D5-BCA7-4612-84F7-4593FCDC0BA2"><g class="stencils" transform="translate(690, 166)"><g class="me"><g pointer-events="fill" id="_44853682-0C7E-49A1-A78E-FDB607B85BE1">      <defs id="_44853682-0C7E-49A1-A78E-FDB607B85BE1__44853682-0C7E-49A1-A78E-FDB607B85BE1_5"> 		<radialGradient id="_44853682-0C7E-49A1-A78E-FDB607B85BE1background" cx="10%" cy="10%" r="100%" fx="10%" fy="10%"> 			<stop offset="0%" stop-color="#ffffff" stop-opacity="1" id="_44853682-0C7E-49A1-A78E-FDB607B85BE1__44853682-0C7E-49A1-A78E-FDB607B85BE1_6"/> 			<stop id="_44853682-0C7E-49A1-A78E-FDB607B85BE1fill_el" offset="100%" stop-color="#ff6347" stop-opacity="1"/> 		</radialGradient> 	</defs> 	     <circle id="_44853682-0C7E-49A1-A78E-FDB607B85BE1bg_frame" cx="14" cy="14" r="14" stroke="#000000" fill="url(#_44853682-0C7E-49A1-A78E-FDB607B85BE1background) white" stroke-width="3"/> 	<text font-size="11" id="_44853682-0C7E-49A1-A78E-FDB607B85BE1text_name" x="14" y="30" oryx:align="top center" stroke="black" stroke-width="0pt" letter-spacing="-0.01px" fill="#000000" text-anchor="middle" transform="rotate(0 14 30)" visibility="inherit" oryx:fontSize="11"/>   </g></g><g class="children" style="overflow:hidden"/><g class="edge"/></g><g class="controls"><g class="dockers"/><g class="magnets" transform="translate(690, 166)"><g pointer-events="all" display="none" transform="translate(6, 6)"><circle cx="8" cy="8" r="4" stroke="none" fill="red" fill-opacity="0.3"/></g></g></g></g></g><g class="edge"><g id="_F647CA96-F4E4-4673-BFC7-767F7874EF06" bpmn2nodeid="_9A2696E4-A95E-46CC-A810-A4DEE7CAD2DD"><g class="stencils"><g class="me"><g pointer-events="painted" bpmn2nodeid="_E4E767B0-A5D0-4E28-AFCA-E0DAD2842B37"><path id="_F647CA96-F4E4-4673-BFC7-767F7874EF06_1" d="M150.609375 180L194.15625 180 " stroke="#000000" fill="none" stroke-width="2" stroke-linecap="round" stroke-linejoin="round" marker-start="url(#_F647CA96-F4E4-4673-BFC7-767F7874EF06start)" marker-end="url(#_F647CA96-F4E4-4673-BFC7-767F7874EF06end)"/></g><text id="_F647CA96-F4E4-4673-BFC7-767F7874EF06text_name" font-size="12" x="164.609375" y="166" oryx:edgePosition="startTop" stroke-width="0pt" letter-spacing="-0.01px" fill="#000000" text-anchor="start" transform="rotate(360 150.609375 180)" visibility="inherit" oryx:fontSize="12"/></g><g class="children" style="overflow:hidden"/><g class="edge"/></g><g class="controls"><g class="dockers"/><g class="magnets"/></g></g><g id="_C719795A-3544-48B7-9FA6-1676D190A457" bpmn2nodeid="_EC8BFF3B-E0F4-441D-BD49-F972CB6B7673"><g class="stencils"><g class="me"><g pointer-events="painted" bpmn2nodeid="_A80FCA83-C675-4530-85A5-A4B6B43FF2D5"><path id="_C719795A-3544-48B7-9FA6-1676D190A457_1" d="M296 180L389.625 180 " stroke="#000000" fill="none" stroke-width="2" stroke-linecap="round" stroke-linejoin="round" marker-start="url(#_C719795A-3544-48B7-9FA6-1676D190A457start)" marker-end="url(#_C719795A-3544-48B7-9FA6-1676D190A457end)"/></g><text id="_C719795A-3544-48B7-9FA6-1676D190A457text_name" font-size="12" x="310" y="166" oryx:edgePosition="startTop" stroke-width="0pt" letter-spacing="-0.01px" fill="#000000" text-anchor="start" transform="rotate(360 296 180)" visibility="inherit" oryx:fontSize="12"/></g><g class="children" style="overflow:hidden"/><g class="edge"/></g><g class="controls"><g class="dockers"/><g class="magnets"/></g></g><g id="_1FEEDAD7-A2C1-4EC1-B56F-727511989982" bpmn2nodeid="_1F2F8EF0-F3D5-4A78-A727-9FA431749414"><g class="stencils"><g class="me"><g pointer-events="painted" bpmn2nodeid="_B2CF7404-2A43-4465-B9B2-CC797D9A2EB7"><path id="_1FEEDAD7-A2C1-4EC1-B56F-727511989982_1" d="M420.53125 180L509.3515625 180 " stroke="#000000" fill="none" stroke-width="2" stroke-linecap="round" stroke-linejoin="round" marker-start="url(#_1FEEDAD7-A2C1-4EC1-B56F-727511989982start)" marker-end="url(#_1FEEDAD7-A2C1-4EC1-B56F-727511989982end)"/></g><text id="_1FEEDAD7-A2C1-4EC1-B56F-727511989982text_name" font-size="12" x="434.53125" y="166" oryx:edgePosition="startTop" stroke-width="0pt" letter-spacing="-0.01px" fill="#000000" text-anchor="start" transform="rotate(360 420.53125 180)" visibility="inherit" oryx:fontSize="12"/></g><g class="children" style="overflow:hidden"/><g class="edge"/></g><g class="controls"><g class="dockers"/><g class="magnets"/></g></g><g id="_FFF6B233-AD57-4D26-882E-E7028B9A2E0E" bpmn2nodeid="_CD104DCC-948D-47B3-9B92-2A9040752869"><g class="stencils"><g class="me"><g pointer-events="painted" bpmn2nodeid="_91CC0165-AE0F-4823-AEC0-D1ACBE763256"><path id="_FFF6B233-AD57-4D26-882E-E7028B9A2E0E_1" d="M610.5 180L689.5 180 " stroke="#000000" fill="none" stroke-width="2" stroke-linecap="round" stroke-linejoin="round" marker-start="url(#_FFF6B233-AD57-4D26-882E-E7028B9A2E0Estart)" marker-end="url(#_FFF6B233-AD57-4D26-882E-E7028B9A2E0Eend)"/></g><text id="_FFF6B233-AD57-4D26-882E-E7028B9A2E0Etext_name" font-size="12" x="624.5" y="166" oryx:edgePosition="startTop" stroke-width="0pt" letter-spacing="-0.01px" fill="#000000" text-anchor="start" transform="rotate(360 610.5 180)" visibility="inherit" oryx:fontSize="12"/></g><g class="children" style="overflow:hidden"/><g class="edge"/></g><g class="controls"><g class="dockers"/><g class="magnets"/></g></g></g><text id="_2ED75F03-869B-4614-B0FF-541815084E13" style="stroke-width:1;fill:rgb(177,194,214);font-family:arial;font-weight:bold" font-size="12" onclick="ORYX.Plugins.CanvasTitle.openTextualAnalysis()" onmouseover="ORYX.Plugins.CanvasTitle.addToolTip('_2ED75F03-869B-4614-B0FF-541815084E13')" transform="translate(10, 20)">gestione-annullamento v.1.0 (hesm-play.gestione-annullamento)</text></g></g></svg>